<svg width="14" height="14" viewBox="0 0 14 14" fill="none" xmlns="http://www.w3.org/2000/svg">
<g style="mix-blend-mode:plus-darker">
<path d="M7 13.8916C6.11556 13.8916 5.2819 13.7223 4.49902 13.3838C3.72038 13.0452 3.03271 12.5776 2.43604 11.981C1.83936 11.3843 1.37174 10.6966 1.0332 9.91797C0.694661 9.13509 0.525391 8.30143 0.525391 7.41699C0.525391 6.53255 0.694661 5.70101 1.0332 4.92236C1.37174 4.13949 1.83724 3.44971 2.42969 2.85303C3.02637 2.25635 3.71403 1.78874 4.49268 1.4502C5.27555 1.11165 6.10921 0.942383 6.99365 0.942383C7.87809 0.942383 8.71175 1.11165 9.49463 1.4502C10.2775 1.78874 10.9673 2.25635 11.564 2.85303C12.1606 3.44971 12.6283 4.13949 12.9668 4.92236C13.3053 5.70101 13.4746 6.53255 13.4746 7.41699C13.4746 8.30143 13.3053 9.13509 12.9668 9.91797C12.6283 10.6966 12.1606 11.3843 11.564 11.981C10.9673 12.5776 10.2775 13.0452 9.49463 13.3838C8.71598 13.7223 7.88444 13.8916 7 13.8916ZM4.86719 10.083C5.01953 10.083 5.1486 10.0322 5.25439 9.93066L7.00635 8.16602L8.76465 9.93066C8.86198 10.0322 8.98682 10.083 9.13916 10.083C9.28727 10.083 9.41211 10.0322 9.51367 9.93066C9.61523 9.82487 9.66602 9.70003 9.66602 9.55615C9.66602 9.39958 9.61523 9.27474 9.51367 9.18164L7.74902 7.42334L9.52002 5.65869C9.62158 5.5529 9.67236 5.42806 9.67236 5.28418C9.67236 5.1403 9.62158 5.01758 9.52002 4.91602C9.41846 4.81445 9.29574 4.76367 9.15186 4.76367C9.01221 4.76367 8.8916 4.81445 8.79004 4.91602L7.00635 6.68701L5.23535 4.92236C5.12956 4.82503 5.00684 4.77637 4.86719 4.77637C4.72331 4.77637 4.60059 4.82715 4.49902 4.92871C4.39746 5.02604 4.34668 5.14876 4.34668 5.29688C4.34668 5.43652 4.39746 5.55924 4.49902 5.66504L6.26367 7.42334L4.49902 9.18799C4.39746 9.28955 4.34668 9.41227 4.34668 9.55615C4.34668 9.70003 4.39746 9.82487 4.49902 9.93066C4.60059 10.0322 4.72331 10.083 4.86719 10.083Z" fill="#808080"/>
</g>
</svg>
