<svg width="27" height="22" viewBox="0 0 27 22" fill="none" xmlns="http://www.w3.org/2000/svg">
<path d="M0.728497 10.8502C0.512902 11.1624 0.44971 11.4375 0.538922 11.6754C0.635568 11.9133 0.884618 12.0322 1.28607 12.0322H2.74691C2.8956 13.3704 3.27847 14.6231 3.89551 15.7903C4.51256 16.9574 5.30803 17.9797 6.28193 18.8569C7.25582 19.7342 8.35982 20.4218 9.59392 20.9199C10.828 21.418 12.1365 21.6671 13.5192 21.6671C15.1027 21.6671 16.5859 21.34 17.9687 20.6858C19.3515 20.0315 20.5335 19.1543 21.5148 18.054C21.7379 17.8161 21.8419 17.5596 21.8271 17.2846C21.8196 17.0095 21.7118 16.7865 21.5037 16.6155C21.2881 16.437 21.0502 16.3627 20.79 16.3924C20.5372 16.4147 20.303 16.5374 20.0874 16.7604C19.2845 17.66 18.3144 18.3737 17.1769 18.9015C16.0469 19.4294 14.8277 19.6933 13.5192 19.6933C12.3892 19.6933 11.3261 19.4963 10.3299 19.1022C9.33372 18.7157 8.4416 18.173 7.65356 17.4741C6.87296 16.7753 6.22989 15.965 5.72436 15.0431C5.22626 14.1213 4.90658 13.1176 4.76533 12.0322H6.33769C6.73171 12.0322 6.97704 11.9133 7.07368 11.6754C7.17033 11.4375 7.11086 11.1661 6.89526 10.8613L4.44194 7.40436C4.26351 7.14415 4.05164 7.01405 3.8063 7.01405C3.5684 7.01405 3.35653 7.14415 3.17067 7.40436L0.728497 10.8502ZM5.54593 3.6017C5.31547 3.8396 5.20395 4.09609 5.21139 4.37116C5.22626 4.64622 5.33777 4.86925 5.54593 5.04024C5.75409 5.21123 5.98827 5.28558 6.24848 5.26327C6.50868 5.24097 6.74657 5.1183 6.96217 4.89527C7.76507 4.00316 8.73154 3.2969 9.86155 2.77649C10.9916 2.24866 12.2108 1.98474 13.5192 1.98474C14.6492 1.98474 15.7124 2.17803 16.7086 2.56462C17.7048 2.9512 18.5932 3.49391 19.3738 4.19273C20.1618 4.88412 20.8049 5.69446 21.303 6.62375C21.8085 7.55304 22.1319 8.55667 22.2731 9.63465H20.7008C20.3142 9.63465 20.0689 9.7536 19.9648 9.9915C19.8607 10.2294 19.9202 10.5007 20.1432 10.8056L22.5854 14.2625C22.7638 14.5153 22.9757 14.6454 23.221 14.6528C23.4663 14.6528 23.6782 14.5227 23.8566 14.2625L26.31 10.8167C26.533 10.5045 26.5925 10.2294 26.4884 9.9915C26.3917 9.7536 26.1464 9.63465 25.7524 9.63465H24.2804C24.1317 8.29647 23.7488 7.04379 23.1318 5.8766C22.5222 4.70942 21.7304 3.6872 20.7565 2.80995C19.7826 1.9327 18.6786 1.24503 17.4445 0.746927C16.2105 0.248828 14.902 -0.000221252 13.5192 -0.000221252C11.9432 -0.000221252 10.4637 0.326889 9.08095 0.981108C7.7056 1.62789 6.52726 2.50143 5.54593 3.6017Z" fill="white"/>
</svg>
