<svg width="24" height="24" viewBox="0 0 24 24" fill="none" xmlns="http://www.w3.org/2000/svg">
<rect x="1.25" y="1.25" width="21.5" height="21.5" rx="10.75" stroke="url(#paint0_linear_367_3287)" stroke-width="1.5"/>
<path d="M11.9962 19C12.5607 19 12.9498 18.6252 12.9498 18.0667V9.35801L12.8811 7.76325L14.6891 9.73281L16.4132 11.379C16.5887 11.5407 16.8175 11.6509 17.0922 11.6509C17.6109 11.6509 18 11.2835 18 10.769C18 10.5265 17.9008 10.2987 17.7025 10.1076L12.7057 5.28661C12.5226 5.10289 12.2556 5 11.9962 5C11.7368 5 11.4774 5.10289 11.2943 5.28661L6.29752 10.1076C6.09917 10.2987 6 10.5265 6 10.769C6 11.2835 6.38907 11.6509 6.90782 11.6509C7.18245 11.6509 7.41132 11.5407 7.58678 11.379L9.30324 9.73281L11.1113 7.76325L11.0502 9.35801V18.0667C11.0502 18.6252 11.4317 19 11.9962 19Z" fill="url(#paint1_linear_367_3287)"/>
<defs>
<linearGradient id="paint0_linear_367_3287" x1="12" y1="2" x2="12" y2="22" gradientUnits="userSpaceOnUse">
<stop stop-color="#FD9800"/>
<stop offset="1" stop-color="#F82E62"/>
</linearGradient>
<linearGradient id="paint1_linear_367_3287" x1="12" y1="5" x2="12" y2="19" gradientUnits="userSpaceOnUse">
<stop stop-color="#FD9800"/>
<stop offset="1" stop-color="#F82E62"/>
</linearGradient>
</defs>
</svg>
