<svg width="12" height="10" viewBox="0 0 12 10" fill="none" xmlns="http://www.w3.org/2000/svg">
<path d="M10.6656 3.98048C10.8927 4.55386 11.0175 5.179 11.0175 5.83376C11.0175 6.75145 10.7723 7.61096 10.344 8.35132L10.8595 8.64953C11.3388 7.82097 11.6131 6.85894 11.6131 5.83376C11.6131 4.93556 11.4025 4.08583 11.028 3.33187C10.887 3.53513 10.7654 3.75228 10.6656 3.98048Z" fill="#DC208D"/>
<path d="M7.00947 1.54368L6.89797 1.16699L6.78646 1.54368C6.39952 2.8508 5.46855 3.92805 4.2313 4.50033C5.46855 5.0726 6.39951 6.14986 6.78646 7.45697L6.89797 7.83366L7.00947 7.45697C7.39642 6.14986 8.32738 5.0726 9.56463 4.50033C8.32738 3.92805 7.39642 2.8508 7.00947 1.54368Z" fill="#F5C451"/>
<path d="M6.31796 1.84757C6.20717 1.83836 6.09511 1.83366 5.98194 1.83366C3.7728 1.83366 1.98194 3.62452 1.98194 5.83366C1.98194 8.0428 3.7728 9.83366 5.98194 9.83366C8.19108 9.83366 9.98194 8.0428 9.98194 5.83366C9.98194 5.4325 9.92289 5.04513 9.813 4.67978C9.63157 4.78432 9.45658 4.898 9.28858 5.02014C9.35249 5.28082 9.38639 5.55328 9.38639 5.83366C9.38639 7.71388 7.86216 9.2381 5.98194 9.2381C4.10172 9.2381 2.5775 7.71388 2.5775 5.83366C2.5775 3.95344 4.10172 2.42921 5.98194 2.42921L5.98399 2.42921C6.10596 2.24225 6.21751 2.04808 6.31796 1.84757Z" fill="#DC208D"/>
<path d="M9.64259 4.21883C9.25214 3.33502 8.55102 2.61921 7.67765 2.20983C8.15918 3.02365 8.83175 3.71456 9.64259 4.21883Z" fill="#DC208D"/>
<path d="M1.61987 3.31407C1.1916 4.05443 0.946386 4.91394 0.946386 5.83163C0.946386 6.74932 1.1916 7.60883 1.61987 8.34919L1.10435 8.6474C0.625056 7.81884 0.35083 6.8568 0.35083 5.83163C0.35083 4.80645 0.625056 3.84442 1.10435 3.01586L1.61987 3.31407Z" fill="#DC208D"/>
<path d="M10.3157 0.166992L10.4092 0.546131C10.5792 1.23526 11.0284 1.82253 11.649 2.16699C11.0284 2.51146 10.5792 3.09872 10.4092 3.78785L10.3157 4.16699L10.2221 3.78785C10.0521 3.09872 9.60294 2.51146 8.98234 2.16699C9.60294 1.82253 10.0521 1.23526 10.2221 0.546132L10.3157 0.166992Z" fill="#F6BE4F"/>
</svg>
